<svg version="1.1" xmlns="http://www.w3.org/2000/svg" viewBox="0 0 2276.986863271867 782.980595779549"
    width="4553.973726543734" height="1565.961191559098">
    <!-- svg-source:excalidraw -->

    <defs>
        <style>
            @font-face {
                font-family: "Virgil";
                src: url("https://excalidraw.com/Virgil.woff2");
            }

            @font-face {
                font-family: "Cascadia";
                src: url("https://excalidraw.com/Cascadia.woff2");
            }
        </style>
    </defs>
    <rect x="0" y="0" width="2276.986863271867" height="782.980595779549" fill="#edf2ff"></rect>
    <g stroke-linecap="round"
        transform="translate(10 231.20315911436683) rotate(0 145.07546496949635 145.1350347542126)">
        <path
            d="M136.19 -0.12 C149.96 -3.8, 164.39 -1.18, 178.47 2.48 C192.55 6.14, 207.75 13.92, 220.7 21.86 C233.64 29.8, 246.13 38.56, 256.14 50.14 C266.15 61.73, 275.45 77.33, 280.74 91.37 C286.02 105.41, 287.15 119.66, 287.85 134.37 C288.55 149.09, 288.22 165.32, 284.92 179.68 C281.61 194.04, 275.79 207.5, 268.01 220.52 C260.22 233.54, 249.56 247.7, 238.21 257.8 C226.86 267.9, 213.46 275.49, 199.91 281.12 C186.37 286.75, 171.82 290.66, 156.94 291.59 C142.06 292.51, 125.48 290.8, 110.63 286.66 C95.77 282.53, 80.44 274.58, 67.82 266.8 C55.21 259.01, 44.58 251.09, 34.92 239.96 C25.26 228.83, 15.64 214.18, 9.86 200.04 C4.08 185.89, 1.3 170.17, 0.27 155.1 C-0.77 140.03, 0.06 124.04, 3.64 109.6 C7.21 95.17, 13.5 80.88, 21.71 68.52 C29.92 56.16, 41.37 45.41, 52.91 35.47 C64.45 25.53, 70.16 14.14, 90.97 8.87 C111.78 3.6, 156.28 1.77, 177.78 3.85 C199.27 5.92, 220.12 18.62, 219.95 21.33 M201.1 11.21 C215.17 14.65, 228.53 28.56, 239.74 38.74 C250.95 48.92, 260.04 59.49, 268.35 72.27 C276.67 85.05, 286.47 101.24, 289.64 115.43 C292.81 129.63, 289.75 142.66, 287.4 157.45 C285.05 172.25, 281.12 190.39, 275.55 204.2 C269.98 218, 263.02 228.96, 253.99 240.28 C244.95 251.6, 233.91 264.83, 221.33 272.11 C208.75 279.4, 193.85 281.51, 178.52 283.98 C163.19 286.44, 144.12 287.48, 129.34 286.9 C114.56 286.32, 103.6 286.03, 89.83 280.5 C76.07 274.96, 58.23 264.06, 46.74 253.67 C35.25 243.27, 28.4 230.6, 20.9 218.12 C13.41 205.64, 5.42 193.29, 1.75 178.8 C-1.93 164.32, -2.96 146.74, -1.15 131.23 C0.66 115.71, 6.07 99.81, 12.62 85.71 C19.16 71.61, 28.22 57.8, 38.12 46.6 C48.02 35.41, 58.93 25.69, 72.02 18.53 C85.11 11.38, 102.46 6.41, 116.67 3.68 C130.89 0.95, 143.04 1.18, 157.3 2.15 C171.55 3.12, 194.64 7.6, 202.21 9.51 C209.78 11.42, 203.15 11.03, 202.7 13.61"
            stroke="#000000" stroke-width="1" fill="none"></path>
    </g>
    <g transform="translate(15 358.33819386857954) rotate(0 140 18)"><text x="140" y="25"
            font-family="Virgil, Segoe UI Emoji" font-size="28px" fill="#000000" text-anchor="middle"
            style="white-space: pre;" direction="ltr">WEB UI</text></g>
    <g stroke-linecap="round" transform="translate(769.7082012644305 10) rotate(0 95.58241786041663 381.4902978897745)">
        <path
            d="M1.14 -0.85 C69.64 3.24, 141.34 0.24, 191.92 -2.02 M-1.02 1.97 C68.14 -1.84, 136.95 -1.19, 189.47 0.59 M192.01 0.68 C195.64 200.12, 196.23 401.15, 190.55 763.9 M191.89 0.09 C185.92 290.39, 184.93 580.02, 191.39 762.55 M193.83 765.4 C145.35 764.17, 91.84 764.06, -2.92 763.93 M191.04 763.55 C147.21 761.82, 100.58 762.61, 1.05 764.64 M0.27 762.5 C0.76 568.94, -0.25 375.19, -1.26 -0.61 M0.56 763.19 C-5.19 549.88, -4.51 335.69, -0.74 0.75"
            stroke="#000000" stroke-width="1" fill="none"></path>
    </g>
    <g stroke-linecap="round">
        <g transform="translate(315.5255385219157 351.05652816266274) rotate(0 206.02501933937447 -99.27330547076497)">
            <path
                d="M1.58 1.53 C70.89 -31.34, 344.31 -162.49, 413.05 -195.35 M-1 -0.11 C68.07 -34.05, 341.28 -168.03, 410.13 -200.07"
                stroke="#000000" stroke-width="1" fill="none"></path>
        </g>
        <g transform="translate(315.5255385219157 351.05652816266274) rotate(0 206.02501933937447 -99.27330547076497)">
            <path
                d="M391.33 -180.43 C393.85 -183.55, 397.64 -186.94, 406.86 -202.02 M387.16 -178.64 C395.12 -184.43, 401.52 -192.92, 410.25 -201.9"
                stroke="#000000" stroke-width="1" fill="none"></path>
        </g>
        <g transform="translate(315.5255385219157 351.05652816266274) rotate(0 206.02501933937447 -99.27330547076497)">
            <path
                d="M382.46 -198.93 C387 -198.44, 392.57 -198.11, 406.86 -202.02 M378.28 -197.14 C388.8 -197.02, 398.02 -199.64, 410.25 -201.9"
                stroke="#000000" stroke-width="1" fill="none"></path>
        </g>
    </g>
    <g stroke-linecap="round">
        <g transform="translate(316.7223307821073 391.2634345633114) rotate(0 223.61108226332362 19.501469689217856)">
            <path
                d="M-0.4 0.44 C73.57 6.97, 371.58 31.68, 446.11 38.37 M-4.06 -1.78 C70.57 5.09, 376.59 33.22, 451.28 40.79"
                stroke="#000000" stroke-width="1" fill="none"></path>
        </g>
        <g transform="translate(316.7223307821073 391.2634345633114) rotate(0 223.61108226332362 19.501469689217856)">
            <path
                d="M422.87 45.06 C430.18 43.23, 444.37 43.17, 450.1 40.76 M422.39 48.06 C432.55 43.47, 444.39 43.13, 449.95 39.69"
                stroke="#000000" stroke-width="1" fill="none"></path>
        </g>
        <g transform="translate(316.7223307821073 391.2634345633114) rotate(0 223.61108226332362 19.501469689217856)">
            <path
                d="M424.83 24.64 C431.27 30.6, 444.72 38.33, 450.1 40.76 M424.35 27.63 C433.77 31.13, 444.83 38.87, 449.95 39.69"
                stroke="#000000" stroke-width="1" fill="none"></path>
        </g>
    </g>
    <g stroke-linecap="round">
        <g transform="translate(309.8026879846302 433.20139324456795) rotate(0 221.09658169782688 95.2275975869403)">
            <path
                d="M-0.12 0.93 C73.86 32.93, 371.85 159.85, 445.82 191.48 M-3.62 -1.03 C69.9 30.18, 370.02 154.69, 444.16 187.22"
                stroke="#000000" stroke-width="1" fill="none"></path>
        </g>
        <g transform="translate(309.8026879846302 433.20139324456795) rotate(0 221.09658169782688 95.2275975869403)">
            <path
                d="M415.54 187.18 C427.28 184.7, 437.31 184.38, 440.41 186.59 M414.31 184.32 C425.51 187.64, 432.39 186.66, 445.36 187.03"
                stroke="#000000" stroke-width="1" fill="none"></path>
        </g>
        <g transform="translate(309.8026879846302 433.20139324456795) rotate(0 221.09658169782688 95.2275975869403)">
            <path
                d="M423.57 168.3 C432.27 172.81, 439.33 179.48, 440.41 186.59 M422.34 165.43 C431.14 175.2, 435.32 180.57, 445.36 187.03"
                stroke="#000000" stroke-width="1" fill="none"></path>
        </g>
    </g>
    <g transform="translate(813.5770927234462 345.8387786740759) rotate(0 45 35.5)"><text x="0" y="25.5"
            font-family="Virgil, Segoe UI Emoji" font-size="28px" fill="#000000" text-anchor="start"
            style="white-space: pre;" direction="ltr">ENVOY</text><text x="0" y="61"
            font-family="Virgil, Segoe UI Emoji" font-size="28px" fill="#000000" text-anchor="start"
            style="white-space: pre;" direction="ltr">PROXY</text></g>
    <g stroke-linecap="round"
        transform="translate(1286.7450817315553 16.309415734528102) rotate(0 123 123.06287281509049)">
        <path
            d="M208.84 34.93 C219.77 42.3, 227.21 55.74, 233.55 68.39 C239.88 81.05, 245.23 96.61, 246.85 110.83 C248.47 125.05, 246.94 139.91, 243.25 153.73 C239.56 167.56, 232.75 182.4, 224.7 193.79 C216.66 205.18, 206.46 213.84, 195 222.06 C183.55 230.28, 169.56 239.45, 155.97 243.1 C142.38 246.75, 127.25 245.64, 113.45 243.96 C99.66 242.28, 85.66 238.25, 73.19 233.03 C60.73 227.82, 49.05 221.91, 38.66 212.66 C28.27 203.42, 16.93 190.5, 10.88 177.56 C4.82 164.61, 3.3 149.44, 2.34 134.99 C1.39 120.54, 2 104.42, 5.13 90.86 C8.26 77.31, 13.56 64.75, 21.12 53.68 C28.69 42.61, 38.96 32.61, 50.53 24.46 C62.11 16.31, 76.94 9.05, 90.58 4.77 C104.22 0.5, 118.16 -2.02, 132.38 -1.19 C146.6 -0.36, 158.42 -2.48, 175.91 9.74 C193.4 21.96, 226.28 53.89, 237.34 72.11 C248.41 90.32, 244.37 117.95, 242.29 119.02 M28.62 48.36 C34.86 36.29, 44.72 27.88, 55.76 19.79 C66.81 11.7, 80.58 2.46, 94.9 -0.16 C109.21 -2.79, 127.66 1.38, 141.66 4.04 C155.66 6.69, 166.82 9.63, 178.91 15.78 C191 21.94, 204.64 30.96, 214.18 40.95 C223.72 50.95, 230.85 62.62, 236.14 75.76 C241.42 88.9, 245.72 105.39, 245.89 119.8 C246.07 134.2, 241.28 148.67, 237.19 162.19 C233.11 175.7, 229.39 189.76, 221.39 200.89 C213.38 212.01, 201.55 222.14, 189.19 228.93 C176.83 235.73, 161.52 238.69, 147.23 241.67 C132.94 244.64, 116.76 248.85, 103.45 246.79 C90.14 244.72, 79.73 236.56, 67.37 229.26 C55 221.96, 39.08 212.98, 29.27 202.99 C19.46 193, 12.92 182.1, 8.52 169.29 C4.12 156.49, 3.12 139.97, 2.85 126.16 C2.59 112.35, 2.73 99.98, 6.93 86.4 C11.13 72.82, 24.64 50.79, 28.04 44.69 C31.44 38.59, 26.18 48.08, 27.32 49.82"
            stroke="#000000" stroke-width="1" fill="none"></path>
    </g>
    <g stroke-linecap="round"
        transform="translate(1294.2863233003682 406.57614609502366) rotate(0 123 123.06287281509049)">
        <path
            d="M99.1 2.75 C111.55 -1.71, 124.68 0.17, 138.48 2.33 C152.28 4.5, 169.4 9.37, 181.9 15.74 C194.39 22.11, 204.08 30.47, 213.45 40.56 C222.81 50.65, 232.56 63.53, 238.09 76.29 C243.61 89.06, 246.53 102.7, 246.62 117.17 C246.72 131.63, 243.22 149.17, 238.65 163.1 C234.08 177.03, 227.43 190.17, 219.2 200.74 C210.97 211.32, 200.79 219.39, 189.26 226.56 C177.73 233.73, 164.07 240.65, 150.01 243.77 C135.96 246.88, 119.3 247.51, 104.93 245.24 C90.56 242.97, 75.85 236.61, 63.79 230.13 C51.74 223.66, 41.64 216.25, 32.6 206.37 C23.56 196.5, 15.13 184, 9.55 170.88 C3.97 157.76, -0.01 142.18, -0.88 127.64 C-1.75 113.09, -0.01 97.11, 4.3 83.59 C8.62 70.06, 15.95 57.63, 25.03 46.48 C34.12 35.33, 40.95 24.6, 58.83 16.67 C76.71 8.74, 114.17 -0.19, 132.3 -1.09 C150.43 -1.99, 167.49 8.98, 167.63 11.29 M159.51 6.86 C172.46 9.76, 185.98 21.02, 197.83 29.2 C209.68 37.37, 222.95 44.68, 230.62 55.89 C238.3 67.11, 242.02 82.47, 243.88 96.48 C245.75 110.48, 244.18 125.49, 241.81 139.91 C239.44 154.34, 235.73 170.69, 229.67 183.04 C223.62 195.39, 216.02 205.4, 205.5 214.02 C194.97 222.64, 180.02 229.71, 166.51 234.76 C152.99 239.8, 138.58 242.93, 124.42 244.27 C110.26 245.62, 94.65 246.73, 81.56 242.84 C68.47 238.96, 56.31 230.25, 45.9 220.97 C35.49 211.68, 26.82 198.9, 19.12 187.14 C11.42 175.38, 2.69 163.97, -0.3 150.39 C-3.29 136.8, -1.13 120.04, 1.18 105.64 C3.49 91.25, 7.1 76.3, 13.57 64.04 C20.04 51.77, 29.49 41.76, 39.99 32.08 C50.48 22.4, 63.31 11.49, 76.53 5.95 C89.75 0.4, 104.96 -1.09, 119.31 -1.17 C133.65 -1.26, 155.52 4.28, 162.6 5.44 C169.69 6.6, 162.3 4.14, 161.8 5.79"
            stroke="#000000" stroke-width="1" fill="none"></path>
    </g>
    <g transform="translate(1291.7450817315553 121.37228854961859) rotate(0 118 18)"><text x="118" y="25"
            font-family="Virgil, Segoe UI Emoji" font-size="28px" fill="#000000" text-anchor="middle"
            style="white-space: pre;" direction="ltr">GRPC SERVER</text></g>
    <g transform="translate(1299.2863233003682 511.63901891011415) rotate(0 118 18)"><text x="118" y="25"
            font-family="Virgil, Segoe UI Emoji" font-size="28px" fill="#000000" text-anchor="middle"
            style="white-space: pre;" direction="ltr">GRPC SERVER</text></g>
    <g stroke-linecap="round">
        <g transform="translate(995.7763645041214 203.27468541296685) rotate(0 142.06389064469272 -2.3400905594630785)">
            <path
                d="M1.59 1.09 C48.2 0.02, 232.71 -4.73, 279.65 -5.77 M-0.99 -0.78 C46.53 -1.41, 237.87 -0.45, 285.11 -2.03"
                stroke="#000000" stroke-width="1" fill="none"></path>
        </g>
        <g transform="translate(995.7763645041214 203.27468541296685) rotate(0 142.06389064469272 -2.3400905594630785)">
            <path
                d="M258.61 6.08 C265.74 7.74, 275.03 2.52, 287.26 -4.87 M255.14 9.29 C263.93 5.31, 276.52 0.16, 283.13 -1.68"
                stroke="#000000" stroke-width="1" fill="none"></path>
        </g>
        <g transform="translate(995.7763645041214 203.27468541296685) rotate(0 142.06389064469272 -2.3400905594630785)">
            <path
                d="M258.37 -14.44 C265.68 -6.61, 275.03 -5.66, 287.26 -4.87 M254.91 -11.23 C263.93 -8.78, 276.6 -7.49, 283.13 -1.68"
                stroke="#000000" stroke-width="1" fill="none"></path>
        </g>
    </g>
    <g stroke-linecap="round">
        <g transform="translate(980.1239962354748 560.136673082661) rotate(0 141.64380302586483 -2.3202886209292046)">
            <path
                d="M1.55 2.77 C48.39 1.76, 232.69 -5.65, 279.15 -7.41 M-1.05 1.8 C46.82 1.27, 237.84 -3.31, 284.33 -4.55"
                stroke="#000000" stroke-width="1" fill="none"></path>
        </g>
        <g transform="translate(980.1239962354748 560.136673082661) rotate(0 141.64380302586483 -2.3202886209292046)">
            <path
                d="M260.36 3.21 C260.99 1.98, 266.98 0.83, 286.77 -6.59 M257.65 7.9 C264.26 3.77, 267.13 2.69, 283.38 -5.1"
                stroke="#000000" stroke-width="1" fill="none"></path>
        </g>
        <g transform="translate(980.1239962354748 560.136673082661) rotate(0 141.64380302586483 -2.3202886209292046)">
            <path
                d="M259.85 -17.31 C260.4 -13.76, 266.51 -10.13, 286.77 -6.59 M257.14 -12.61 C264.15 -12.24, 267.13 -8.82, 283.38 -5.1"
                stroke="#000000" stroke-width="1" fill="none"></path>
        </g>
    </g>
    <g stroke-linecap="round">
        <g transform="translate(1548.5553233613196 208.8659427672901) rotate(0 202.47671420321103 52.5875032948511)">
            <path
                d="M-0.35 -0.7 C67.34 17.04, 335.55 90.66, 403.48 108.72 M-3.99 -3.54 C64.86 13.07, 340.53 84.97, 408.94 103.97"
                stroke="#000000" stroke-width="1" fill="none"></path>
        </g>
        <g transform="translate(1548.5553233613196 208.8659427672901) rotate(0 202.47671420321103 52.5875032948511)">
            <path
                d="M378.06 104.12 C385.8 108.96, 390.37 102.54, 409.25 107.23 M377.34 106.97 C386.39 104.22, 392.36 106.47, 407.04 105.14"
                stroke="#000000" stroke-width="1" fill="none"></path>
        </g>
        <g transform="translate(1548.5553233613196 208.8659427672901) rotate(0 202.47671420321103 52.5875032948511)">
            <path
                d="M383.36 84.3 C390.35 93.17, 393.84 90.8, 409.25 107.23 M382.64 87.15 C390.72 89.5, 395.34 96.83, 407.04 105.14"
                stroke="#000000" stroke-width="1" fill="none"></path>
        </g>
    </g>
    <g stroke-linecap="round">
        <g transform="translate(1553.633491838225 478.5921162768964) rotate(0 204.16009722650574 -69.23406134572087)">
            <path
                d="M-0.53 1.22 C68.39 -21.09, 344.2 -112.38, 412.58 -135.67 M-4.26 -0.58 C64.59 -23.52, 342.96 -117.12, 411.62 -139.69"
                stroke="#000000" stroke-width="1" fill="none"></path>
        </g>
        <g transform="translate(1553.633491838225 478.5921162768964) rotate(0 204.16009722650574 -69.23406134572087)">
            <path
                d="M389.87 -117.68 C397.23 -126.57, 399.38 -130.28, 408.5 -137.15 M386.64 -119.23 C393.87 -127.53, 400.77 -131.18, 410.11 -140.61"
                stroke="#000000" stroke-width="1" fill="none"></path>
        </g>
        <g transform="translate(1553.633491838225 478.5921162768964) rotate(0 204.16009722650574 -69.23406134572087)">
            <path
                d="M383.38 -137.15 C392.22 -140.83, 396.11 -139.34, 408.5 -137.15 M380.15 -138.7 C389.16 -141.45, 397.89 -139.6, 410.11 -140.61"
                stroke="#000000" stroke-width="1" fill="none"></path>
        </g>
    </g>
    <g stroke-linecap="round"
        transform="translate(1986.9868632718672 180.78242157744762) rotate(0 140 149.98384918194859)">
        <path
            d="M248.84 54.93 C258.76 65.07, 264.98 82.42, 270.33 97.04 C275.68 111.66, 280.26 127.19, 280.94 142.65 C281.63 158.11, 278.76 174.77, 274.44 189.8 C270.12 204.82, 263.12 219.91, 255.02 232.81 C246.92 245.72, 237.11 257.93, 225.84 267.23 C214.58 276.52, 200.75 282.92, 187.43 288.59 C174.1 294.26, 159.94 300.51, 145.91 301.25 C131.88 301.99, 117.35 297.29, 103.27 293.04 C89.19 288.78, 73.9 283.99, 61.44 275.74 C48.97 267.48, 36.93 255.95, 28.48 243.52 C20.04 231.1, 15.65 216.06, 10.78 201.18 C5.9 186.3, 0.08 169.61, -0.76 154.26 C-1.61 138.91, 2.01 123.67, 5.71 109.1 C9.4 94.53, 13.43 79.78, 21.41 66.84 C29.38 53.89, 41.78 41.28, 53.57 31.4 C65.37 21.52, 78.64 12.62, 92.17 7.54 C105.7 2.45, 120.56 1.44, 134.77 0.91 C148.98 0.37, 163.94 0.13, 177.43 4.32 C190.92 8.51, 201.95 15.27, 215.72 26.06 C229.49 36.85, 252.31 59.58, 260.06 69.04 C267.81 78.49, 264.4 81.39, 262.23 82.8 M220.03 29.08 C231.97 35.75, 242.08 50.76, 250.56 62.67 C259.05 74.58, 266.18 86.12, 270.94 100.54 C275.7 114.95, 278.84 133.36, 279.11 149.16 C279.39 164.96, 276.58 181.13, 272.59 195.34 C268.59 209.55, 263.51 221.7, 255.17 234.42 C246.82 247.14, 233.94 262.33, 222.54 271.65 C211.13 280.98, 199.91 285.45, 186.74 290.38 C173.57 295.31, 158.55 300.94, 143.54 301.24 C128.53 301.54, 110.41 297.15, 96.69 292.19 C82.97 287.23, 72.73 279.94, 61.21 271.46 C49.7 262.98, 36.62 253.44, 27.6 241.31 C18.58 229.17, 11.36 213.77, 7.12 198.66 C2.87 183.55, 2.72 166.58, 2.15 150.66 C1.57 134.73, -0.62 117.57, 3.66 103.1 C7.94 88.63, 19.48 75.82, 27.8 63.83 C36.12 51.84, 42.26 40.25, 53.6 31.15 C64.93 22.06, 81.92 13.99, 95.79 9.26 C109.67 4.52, 122.49 2.91, 136.83 2.76 C151.17 2.6, 167.86 4.2, 181.85 8.31 C195.83 12.41, 214.33 24.13, 220.75 27.39 C227.16 30.65, 221.23 25.67, 220.33 27.88"
            stroke="#000000" stroke-width="1" fill="none"></path>
    </g>
    <g transform="translate(1991.9868632718672 312.7662707593961) rotate(0 135 18)"><text x="135" y="25"
            font-family="Virgil, Segoe UI Emoji" font-size="28px" fill="#000000" text-anchor="middle"
            style="white-space: pre;" direction="ltr">THIRD PARTY</text></g>
    <g stroke-linecap="round">
        <g transform="translate(1267.3572961887307 139.666193828916) rotate(0 -138.72390715805318 7.792733310836525)">
            <path
                d="M-2.15 2.62 C-48.54 4.66, -231.47 9.5, -277.23 11.03 M1.88 1.57 C-44.96 4.1, -232.66 11.84, -279.32 14.02"
                stroke="#000000" stroke-width="1" fill="none"></path>
        </g>
        <g transform="translate(1267.3572961887307 139.666193828916) rotate(0 -138.72390715805318 7.792733310836525)">
            <path
                d="M-247.87 2.91 C-262.8 7.13, -271.14 11.83, -282.53 14.05 M-252.23 2.6 C-260.46 5.16, -272.21 12.1, -278.76 12.98"
                stroke="#000000" stroke-width="1" fill="none"></path>
        </g>
        <g transform="translate(1267.3572961887307 139.666193828916) rotate(0 -138.72390715805318 7.792733310836525)">
            <path
                d="M-246.97 23.42 C-262.03 20.66, -270.67 18.39, -282.53 14.05 M-251.33 23.1 C-259.47 18.49, -271.53 18.26, -278.76 12.98"
                stroke="#000000" stroke-width="1" fill="none"></path>
        </g>
    </g>
    <g stroke-linecap="round">
        <g transform="translate(1271.8656677426443 623.9334217912349) rotate(0 -138.51197663990274 5.849805209602209)">
            <path
                d="M-0.99 0.16 C-47.4 2.38, -231.59 12.1, -278.12 13.92 M3.66 -2.22 C-43.2 -0.86, -234.28 7.21, -280.69 9.84"
                stroke="#000000" stroke-width="1" fill="none"></path>
        </g>
        <g transform="translate(1271.8656677426443 623.9334217912349) rotate(0 -138.51197663990274 5.849805209602209)">
            <path
                d="M-252.79 -2.64 C-259.14 -2.16, -271.8 4.87, -281.35 13.65 M-254.75 -1.33 C-262.2 -0.04, -270.7 4.39, -279.77 9.91"
                stroke="#000000" stroke-width="1" fill="none"></path>
        </g>
        <g transform="translate(1271.8656677426443 623.9334217912349) rotate(0 -138.51197663990274 5.849805209602209)">
            <path
                d="M-251.81 17.86 C-258.55 11.94, -271.52 12.59, -281.35 13.65 M-253.76 19.17 C-261.63 13.32, -270.47 10.62, -279.77 9.91"
                stroke="#000000" stroke-width="1" fill="none"></path>
        </g>
    </g>
    <g stroke-linecap="round">
        <g
            transform="translate(2024.4452571665415 257.36135165253904) rotate(0 -230.38293270662757 -65.25387635415302)">
            <path
                d="M1.45 -2.22 C-75.6 -23.32, -382.98 -107.73, -460.63 -128.97 M-1.2 2.74 C-78.67 -18.97, -385.92 -111.77, -462.22 -133.25"
                stroke="#000000" stroke-width="1" fill="none"></path>
        </g>
        <g
            transform="translate(2024.4452571665415 257.36135165253904) rotate(0 -230.38293270662757 -65.25387635415302)">
            <path
                d="M-435.46 -133.48 C-441.2 -137.9, -452.96 -133.21, -458.55 -132.76 M-432.32 -135.41 C-438.2 -136.56, -447.86 -132.97, -461.08 -133.64"
                stroke="#000000" stroke-width="1" fill="none"></path>
        </g>
        <g
            transform="translate(2024.4452571665415 257.36135165253904) rotate(0 -230.38293270662757 -65.25387635415302)">
            <path
                d="M-441.23 -113.79 C-444.55 -125.37, -454.23 -127.79, -458.55 -132.76 M-438.09 -115.72 C-442.7 -121.44, -450.99 -122.52, -461.08 -133.64"
                stroke="#000000" stroke-width="1" fill="none"></path>
        </g>
    </g>
    <g stroke-linecap="round">
        <g
            transform="translate(1969.1009835207096 426.25912638251225) rotate(0 -210.15951837688363 50.741862582703675)">
            <path
                d="M-1.94 2.51 C-71.51 19.09, -350.46 81.54, -419.67 97.25 M2.2 1.4 C-67.63 18.54, -352.45 83.84, -422.52 100.08"
                stroke="#000000" stroke-width="1" fill="none"></path>
        </g>
        <g
            transform="translate(1969.1009835207096 426.25912638251225) rotate(0 -210.15951837688363 50.741862582703675)">
            <path
                d="M-393.77 82.12 C-405.25 88.93, -411.44 92.5, -424.76 101.77 M-397.79 84.03 C-406.15 89.52, -412.29 91.66, -424.38 98.27"
                stroke="#000000" stroke-width="1" fill="none"></path>
        </g>
        <g
            transform="translate(1969.1009835207096 426.25912638251225) rotate(0 -210.15951837688363 50.741862582703675)">
            <path
                d="M-389.16 102.12 C-401.32 104.48, -408.53 103.68, -424.76 101.77 M-393.18 104.03 C-403.15 103.87, -410.6 100.3, -424.38 98.27"
                stroke="#000000" stroke-width="1" fill="none"></path>
        </g>
    </g>
</svg>